--------------------------------------------
 
http://publichash.com/

--------------------------------------------

Escape from Planet Earth (2013)
89 min  -  Animation | Adventure | Comedy  -  15 February 2013 (USA)
IMDB Rating: 5.3

Astronaut Scorch Supernova finds himself caught in a trap when he responds to an SOS from a notoriously dangerous alien planet.

Director : Cal Brunker
Writers : Bob Barlen, Cal Brunker

Brendan Fraser ... Scorch Supernova (voice)
Rob Corddry ... Gary Supernova (voice)
Ricky Gervais ... Mr. James Bing (voice)
Jonathan Morgan Heit ... Kip Supernova (voice)
Jessica Alba ... Lena Thackleman (voice)
Sofía Vergara ... Gabby Babblebrock (voice)
Paul Scheer ... Cameraman (voice)
Jason Simpson ... Barry (voice)
Sarah Jessica Parker ... Kira Supernova (voice)
Doug Abrahams ... Hazmat / Baabian Citizen (voice)
Jason Benson ... Hazmat (voice)
Trevor Devall ... Hazmat (voice)
Brian Dobson ... Hazmat (voice)
Brad Dryborough ... Hazmat (voice)

IMDB:
PLOT INFO:
Astronaut Scorch Supernova finds himself caught in a trap when he responds to an SOS from a notoriously dangerous alien planet

Media Info:
General
Format: AVI
Format/Info: Audio Video Interleave
File size: 1.36 GiB
Overall bit rate: 2 186 Kbps

Video
ID: 0
Format: MPEG-4 Visual
Format profile: Advanced Simple@L5
Format settings, BVOP: 2
Format settings, QPel: No
Format settings, GMC: No warppoints
Format settings, Matrix: Default (H.263)
Muxing mode: Packed bitstream
Codec ID: XVID
Codec ID/Hint: XviD
Bit rate: 1 730 Kbps
Width: 720 pixels
Height: 304 pixels
Display aspect ratio: 2.35:1
Frame rate: 23.976 fps
Color space: YUV
Chroma subsampling: 4:2:0
Bit depth: 8 bits
Scan type: Progressive
Compression mode: Lossy
Bits/(Pixel*Frame): 0.330
Stream size: 1.08 GiB (79%)
Writing library: XviD 64

Audio
ID: 1
Format: AC-3
Format/Info: Audio Coding 3
Mode extension: CM (complete main)
Format settings, Endianness: Big
Codec ID: 2000
Bit rate mode: Constant
Bit rate: 448 Kbps
Channel(s): 6 channels
Channel positions: Front: L C R, Side: L R, LFE
Sampling rate: 48.0 KHz
Bit depth: 16 bits
Compression mode: Lossy
Stream size: 286 MiB (20%)
Alignment: Aligned on interleaves
Interleave, duration: 64 ms (1.54 video frames)
Interleave, preload duration: 192 ms
Title: escape

SOURCE:
Retail RA/R1 BD/DVD Combo

IMDB link: http://www.imdb.com/title/tt0765446/

Blue alien named Scorch(Brendan Fraser) is quite the thrill seeker, every time he goes on a mission. With his brother Gary(Rob Corddry) who is behind the controls guiding him on the missions, Gary is not a thrill seeker like his brother, they are from the planet BAAB. Scorch gets a new mission, to go the forbidden planet AKA Earth. Gary refuses to go along with it. Cause he is tired of being in his brothers shadow. When Scorch gets captured when he does arrive on earth, it's up to Gary to rescue him, but will he?

The animation is almost up there with Wreck It Ralph. The jokes seem run themselves into the ground. Most of the time instead of trying to have a story, I feel it was going more for satire. Not that it was terrible, but not has good as Monters Vs Aliens(2009). Brendan Fraser and Rob Corddry are alright in voice casting.


--------------------------------------------